<svg width="520" height="358" viewBox="0 0 520 358" fill="none" xmlns="http://www.w3.org/2000/svg">
<path d="M506.364 358H12.8842C9.51556 357.996 6.28598 356.562 3.90399 354.014C1.522 351.466 0.182126 348.011 0.178319 344.407V18.8611C0.181064 16.2208 1.16263 13.6895 2.90768 11.8225C4.65272 9.95548 7.01873 8.90524 9.48664 8.90219H509.601C512.111 8.90524 514.518 9.97362 516.293 11.8729C518.069 13.7722 519.067 16.3473 519.07 19.0333V344.407C519.066 348.011 517.726 351.466 515.344 354.014C512.962 356.562 509.733 357.996 506.364 358Z" fill="#FBB1B1"/>
<path d="M490.409 340.837H30.4984C23.7566 340.837 18.2718 335.342 18.2718 328.588V45.0992C18.2718 40.0902 22.3361 36.0148 27.332 36.0148H493.425C498.504 36.0148 502.636 40.1574 502.636 45.2489V328.588C502.636 335.342 497.151 340.837 490.409 340.837Z" fill="white"/>
<path d="M518.893 20.5551H0V13.6345C0.00488494 10.0185 1.35023 6.55231 3.74087 3.99624C6.13152 1.44018 9.37224 0.00299828 12.7521 0H506.141C509.521 0.00296778 512.762 1.44013 515.152 3.99621C517.543 6.55228 518.888 10.0185 518.893 13.6345V20.5551Z" fill="#99EBE6"/>
<path d="M23.175 13.8269C24.9967 13.8269 26.4735 12.247 26.4735 10.2981C26.4735 8.34913 24.9967 6.7692 23.175 6.7692C21.3534 6.7692 19.8766 8.34913 19.8766 10.2981C19.8766 12.247 21.3534 13.8269 23.175 13.8269Z" fill="#FF0000"/>
<path d="M35.6952 13.8269C37.5169 13.8269 38.9937 12.247 38.9937 10.2981C38.9937 8.34913 37.5169 6.7692 35.6952 6.7692C33.8735 6.7692 32.3967 8.34913 32.3967 10.2981C32.3967 12.247 33.8735 13.8269 35.6952 13.8269Z" fill="#FFE600"/>
<path d="M51.0138 10.2981C51.0138 12.0032 49.7296 13.3269 48.2153 13.3269C46.7011 13.3269 45.4169 12.0032 45.4169 10.2981C45.4169 8.59293 46.7011 7.2692 48.2153 7.2692C49.7296 7.2692 51.0138 8.59293 51.0138 10.2981Z" fill="#17A73F"/>
<path d="M51.0138 10.2981C51.0138 12.0032 49.7296 13.3269 48.2153 13.3269C46.7011 13.3269 45.4169 12.0032 45.4169 10.2981C45.4169 8.59293 46.7011 7.2692 48.2153 7.2692C49.7296 7.2692 51.0138 8.59293 51.0138 10.2981Z" stroke="black"/>
<path d="M51.0138 10.2981C51.0138 12.0032 49.7296 13.3269 48.2153 13.3269C46.7011 13.3269 45.4169 12.0032 45.4169 10.2981C45.4169 8.59293 46.7011 7.2692 48.2153 7.2692C49.7296 7.2692 51.0138 8.59293 51.0138 10.2981Z" stroke="black" stroke-opacity="0.2"/>
<path d="M249.543 98H159.594C158.253 98 156.967 97.4301 156.019 96.4157C155.071 95.4012 154.538 94.0252 154.538 92.5906C154.538 91.1559 155.071 89.78 156.019 88.7655C156.967 87.751 158.253 87.1811 159.594 87.1811H249.543C250.884 87.1811 252.17 87.751 253.118 88.7655C254.066 89.78 254.599 91.1559 254.599 92.5906C254.599 94.0252 254.066 95.4012 253.118 96.4157C252.17 97.4301 250.884 98 249.543 98Z" fill="#CCCCCC"/>
<path d="M361.313 98H271.365C270.024 98 268.737 97.4301 267.789 96.4157C266.841 95.4012 266.308 94.0252 266.308 92.5906C266.308 91.1559 266.841 89.78 267.789 88.7655C268.737 87.751 270.024 87.1811 271.365 87.1811H361.313C362.654 87.1811 363.94 87.751 364.888 88.7655C365.837 89.78 366.369 91.1559 366.369 92.5906C366.369 94.0252 365.837 95.4012 364.888 96.4157C363.94 97.4301 362.654 98 361.313 98Z" fill="#CCCCCC"/>
<path d="M361.313 118.499H204.835C203.494 118.499 202.207 117.929 201.259 116.915C200.311 115.9 199.778 114.524 199.778 113.09C199.778 111.655 200.311 110.279 201.259 109.265C202.207 108.25 203.494 107.68 204.835 107.68H361.313C362.654 107.68 363.94 108.25 364.888 109.265C365.837 110.279 366.369 111.655 366.369 113.09C366.369 114.524 365.837 115.9 364.888 116.915C363.94 117.929 362.654 118.499 361.313 118.499Z" fill="#CCCCCC"/>
<path d="M249.543 77.2162H159.594C158.254 77.2145 156.97 76.6438 156.023 75.6295C155.076 74.6152 154.544 73.2403 154.544 71.8068C154.544 70.3732 155.076 68.9983 156.023 67.984C156.97 66.9697 158.254 66.3991 159.594 66.3973H249.543C250.207 66.3964 250.865 66.5357 251.48 66.8071C252.094 67.0786 252.652 67.4769 253.122 67.9793C253.592 68.4817 253.965 69.0783 254.22 69.7351C254.474 70.3918 254.605 71.0958 254.605 71.8068C254.605 72.5177 254.474 73.2217 254.22 73.8784C253.965 74.5352 253.592 75.1318 253.122 75.6342C252.652 76.1366 252.094 76.5349 251.48 76.8064C250.865 77.0778 250.207 77.2171 249.543 77.2162Z" fill="#CCCCCC"/>
<path d="M299.041 77.5009H273.493C272.152 77.5009 270.866 76.931 269.918 75.9165C268.97 74.9021 268.437 73.5261 268.437 72.0914C268.437 70.6568 268.97 69.2808 269.918 68.2664C270.866 67.2519 272.152 66.682 273.493 66.682H299.041C300.382 66.682 301.668 67.2519 302.616 68.2664C303.565 69.2808 304.097 70.6568 304.097 72.0914C304.097 73.5261 303.565 74.9021 302.616 75.9165C301.668 76.931 300.382 77.5009 299.041 77.5009Z" fill="#CCCCCC"/>
<path d="M185.142 118.499H159.594C158.254 118.497 156.97 117.927 156.023 116.912C155.076 115.898 154.544 114.523 154.544 113.09C154.544 111.656 155.076 110.281 156.023 109.267C156.97 108.253 158.254 107.682 159.594 107.68H185.142C185.806 107.679 186.464 107.819 187.079 108.09C187.693 108.361 188.251 108.76 188.721 109.262C189.191 109.765 189.564 110.361 189.819 111.018C190.073 111.675 190.204 112.379 190.204 113.09C190.204 113.801 190.073 114.505 189.819 115.161C189.564 115.818 189.191 116.415 188.721 116.917C188.251 117.419 187.693 117.818 187.079 118.089C186.464 118.361 185.806 118.5 185.142 118.499Z" fill="#CCCCCC"/>
<path d="M249.543 289.956H159.594C158.253 289.956 156.967 289.386 156.019 288.371C155.071 287.357 154.538 285.981 154.538 284.546C154.538 283.112 155.071 281.736 156.019 280.721C156.967 279.707 158.253 279.137 159.594 279.137H249.543C250.207 279.137 250.864 279.277 251.478 279.549C252.091 279.821 252.649 280.219 253.118 280.721C253.588 281.224 253.96 281.82 254.214 282.476C254.468 283.133 254.599 283.836 254.599 284.546C254.599 285.257 254.468 285.96 254.214 286.617C253.96 287.273 253.588 287.869 253.118 288.371C252.649 288.874 252.091 289.272 251.478 289.544C250.864 289.816 250.207 289.956 249.543 289.956Z" fill="#CCCCCC"/>
<path d="M361.313 289.956H271.365C270.024 289.956 268.737 289.386 267.789 288.371C266.841 287.357 266.308 285.981 266.308 284.546C266.308 283.112 266.841 281.736 267.789 280.721C268.737 279.707 270.024 279.137 271.365 279.137H361.313C361.977 279.137 362.635 279.277 363.248 279.549C363.861 279.821 364.419 280.219 364.888 280.721C365.358 281.224 365.73 281.82 365.984 282.476C366.239 283.133 366.369 283.836 366.369 284.546C366.369 285.257 366.239 285.96 365.984 286.617C365.73 287.273 365.358 287.869 364.888 288.371C364.419 288.874 363.861 289.272 363.248 289.544C362.635 289.816 361.977 289.956 361.313 289.956Z" fill="#CCCCCC"/>
<path d="M361.313 310.455H204.835C203.494 310.455 202.207 309.885 201.259 308.871C200.311 307.856 199.778 306.48 199.778 305.045C199.778 303.611 200.311 302.235 201.259 301.22C202.207 300.206 203.494 299.636 204.835 299.636H361.313C361.978 299.635 362.636 299.774 363.25 300.046C363.864 300.317 364.422 300.716 364.892 301.218C365.363 301.72 365.736 302.317 365.99 302.974C366.245 303.631 366.376 304.334 366.376 305.045C366.376 305.756 366.245 306.46 365.99 307.117C365.736 307.774 365.363 308.371 364.892 308.873C364.422 309.375 363.864 309.774 363.25 310.045C362.636 310.317 361.978 310.456 361.313 310.455Z" fill="#CCCCCC"/>
<path d="M249.543 269.172H159.594C158.253 269.172 156.967 268.602 156.019 267.588C155.071 266.573 154.538 265.197 154.538 263.763C154.538 262.328 155.071 260.952 156.019 259.938C156.967 258.923 158.253 258.353 159.594 258.353H249.543C250.884 258.353 252.17 258.923 253.118 259.938C254.066 260.952 254.599 262.328 254.599 263.763C254.599 265.197 254.066 266.573 253.118 267.588C252.17 268.602 250.884 269.172 249.543 269.172Z" fill="#CCCCCC"/>
<path d="M299.041 269.457H273.493C272.152 269.457 270.866 268.887 269.918 267.872C268.97 266.858 268.437 265.482 268.437 264.047C268.437 262.613 268.97 261.237 269.918 260.222C270.866 259.208 272.152 258.638 273.493 258.638H299.041C300.382 258.638 301.668 259.208 302.616 260.222C303.565 261.237 304.097 262.613 304.097 264.047C304.097 265.482 303.565 266.858 302.616 267.872C301.668 268.887 300.382 269.457 299.041 269.457Z" fill="#CCCCCC"/>
<path d="M185.142 310.455H159.594C158.253 310.455 156.967 309.885 156.019 308.871C155.071 307.856 154.538 306.48 154.538 305.045C154.538 303.611 155.071 302.235 156.019 301.22C156.967 300.206 158.253 299.636 159.594 299.636H185.142C185.806 299.635 186.464 299.774 187.079 300.046C187.693 300.317 188.251 300.716 188.721 301.218C189.191 301.72 189.564 302.317 189.819 302.974C190.073 303.631 190.204 304.334 190.204 305.045C190.204 305.756 190.073 306.46 189.819 307.117C189.564 307.774 189.191 308.371 188.721 308.873C188.251 309.375 187.693 309.774 187.079 310.045C186.464 310.317 185.806 310.456 185.142 310.455Z" fill="#CCCCCC"/>
<path d="M226.051 231.881C224.142 231.885 222.309 231.083 220.951 229.648L187.138 193.927C186.475 193.225 185.948 192.39 185.588 191.469C185.228 190.548 185.043 189.56 185.043 188.562C185.043 187.564 185.228 186.576 185.588 185.655C185.948 184.734 186.475 183.899 187.138 183.197L220.814 147.62C222.217 146.145 224.107 145.322 226.074 145.328C228.041 145.335 229.926 146.171 231.32 147.656C232.716 149.152 233.499 151.18 233.499 153.294C233.499 155.407 232.716 157.435 231.32 158.931L206.297 185.704C205.517 186.54 205.079 187.672 205.079 188.853C205.079 190.034 205.517 191.167 206.297 192.003L231.185 218.63C232.201 219.715 232.893 221.099 233.174 222.605C233.455 224.112 233.311 225.674 232.761 227.093C232.211 228.512 231.28 229.724 230.086 230.577C228.891 231.429 227.487 231.883 226.051 231.881V231.881Z" fill="#64C5BD"/>
<path d="M279.928 231.881C278.492 231.883 277.088 231.429 275.894 230.577C274.699 229.724 273.768 228.512 273.218 227.093C272.668 225.674 272.525 224.112 272.805 222.605C273.086 221.099 273.778 219.715 274.795 218.63L299.683 192.003C300.462 191.167 300.9 190.034 300.9 188.853C300.9 187.672 300.462 186.54 299.683 185.704L274.659 158.931C273.967 158.191 273.418 157.312 273.043 156.345C272.669 155.377 272.476 154.341 272.476 153.294C272.476 152.246 272.669 151.21 273.043 150.242C273.418 149.275 273.967 148.396 274.659 147.656C276.053 146.171 277.938 145.335 279.905 145.328C281.872 145.322 283.762 146.145 285.165 147.62L318.841 183.197C319.504 183.899 320.031 184.734 320.391 185.655C320.751 186.576 320.936 187.564 320.936 188.562C320.936 189.56 320.751 190.548 320.391 191.469C320.031 192.39 319.504 193.225 318.841 193.927L285.029 229.648C283.67 231.083 281.837 231.885 279.928 231.881Z" fill="#64C5BD"/>
</svg>
